<?xml version="1.0" encoding="UTF-8"?>
<!--Generator: Apple Native CoreSVG 326-->
<!DOCTYPE svg
PUBLIC "-//W3C//DTD SVG 1.1//EN"
       "http://www.w3.org/Graphics/SVG/1.1/DTD/svg11.dtd">
<svg version="1.1" xmlns="http://www.w3.org/2000/svg" xmlns:xlink="http://www.w3.org/1999/xlink" viewBox="0 0 63.5977 63.6116">
 <g>
  <rect height="63.6116" opacity="0" width="63.5977" x="0" y="0"/>
  <path d="M31.7857 63.5714C49.3183 63.5714 63.5977 49.2919 63.5977 31.7857C63.5977 14.2794 49.3183 0 31.7857 0C14.2794 0 0 14.2794 0 31.7857C0 49.2919 14.2794 63.5714 31.7857 63.5714Z" fill="#ac8e68" fill-opacity="0.25"/>
  <path d="M31.1049 40.5012L32.6688 40.5012C41.6246 40.5012 47.4501 34.4175 47.4501 25.319L47.4501 21.781C47.4501 17.4875 41.1829 14.6029 31.8843 14.6029C22.5793 14.6029 16.3184 17.4875 16.3184 21.781L16.3184 25.319C16.3184 34.2219 22.1335 40.5012 31.1049 40.5012ZM31.8843 25.8006C24.8305 25.8006 19.4884 23.9851 19.4884 21.781C19.4884 19.5811 24.8242 17.7792 31.8843 17.7792C38.9558 17.7792 44.2854 19.5811 44.2854 21.781C44.2854 23.9851 38.9495 25.8006 31.8843 25.8006ZM45.3881 32.588L46.9564 32.588C50.8572 32.588 53.2368 30.4979 53.2368 27.0787C53.2368 23.6719 50.8396 21.5745 46.9564 21.5745L45.6623 21.5745L45.6623 24.6405L46.9564 24.6405C49.0022 24.6405 50.1709 25.5416 50.1709 27.0787C50.1709 28.5948 48.996 29.522 46.9564 29.522L45.3881 29.522ZM31.7893 48.8471C45.1992 48.8471 54.6394 45.0169 54.6394 39.3835C54.6394 37.2917 53.2743 35.409 50.8266 33.9175C49.7782 34.3903 48.6024 34.6586 47.2449 34.7065C44.4472 39.6683 39.2485 42.626 32.6688 42.626L31.1049 42.626C23.6568 42.626 17.9456 38.6931 15.4892 32.4946C11.3288 34.1635 8.95905 36.5536 8.95905 39.3835C8.95905 45.0169 18.417 48.8471 31.7893 48.8471Z" fill="#ac8e68"/>
 </g>
</svg>
