<?xml version="1.0" encoding="UTF-8"?>
<!--Generator: Apple Native CoreSVG 326-->
<!DOCTYPE svg
PUBLIC "-//W3C//DTD SVG 1.1//EN"
       "http://www.w3.org/Graphics/SVG/1.1/DTD/svg11.dtd">
<svg version="1.1" xmlns="http://www.w3.org/2000/svg" xmlns:xlink="http://www.w3.org/1999/xlink" viewBox="0 0 63.9404 63.6475">
 <g>
  <rect height="63.6475" opacity="0" width="63.9404" x="0" y="0"/>
  <path d="M31.7871 63.5986C49.3164 63.5986 63.5986 49.3164 63.5986 31.8115C63.5986 14.2822 49.3164 0 31.7871 0C14.2822 0 0 14.2822 0 31.8115C0 49.3164 14.2822 63.5986 31.7871 63.5986Z" fill="#bf5af2" fill-opacity="0.25"/>
  <path d="M24.8047 52.9541C23.3398 52.9541 22.3389 52.124 22.3877 50.6592L22.7295 30.0781C22.7295 29.4434 22.4854 28.9795 21.9238 28.7109C19.4824 27.6611 18.5059 26.5381 18.6523 23.3398L19.165 12.1582C19.2139 11.3525 19.6533 10.9131 20.3857 10.9131C21.1182 10.9131 21.5088 11.377 21.5088 12.1826L21.3867 23.0957C21.3867 23.7305 21.8262 24.1455 22.3877 24.1455C22.998 24.1455 23.4375 23.7305 23.4375 23.1201L23.6084 11.8896C23.6084 11.1084 24.0967 10.6934 24.8047 10.6934C25.5127 10.6934 26.0254 11.1084 26.0254 11.8896L26.1475 23.1201C26.1475 23.7305 26.5869 24.1455 27.2217 24.1455C27.8076 24.1455 28.2227 23.7305 28.2227 23.0957L28.1006 12.1826C28.1006 11.377 28.5156 10.9131 29.248 10.9131C29.9805 10.9131 30.3711 11.3525 30.4199 12.1582L30.9814 23.3398C31.1279 26.5381 30.127 27.6611 27.7344 28.7109C27.1484 28.9795 26.9043 29.4434 26.9043 30.0781L27.2461 50.6592C27.2705 52.124 26.2939 52.9541 24.8047 52.9541ZM37.7441 37.6221C37.7686 36.8408 37.4756 36.3037 36.8164 35.8643L35.8398 35.1562C34.9365 34.4971 34.4482 33.6182 34.4482 32.2998L34.4482 31.0303C34.4482 23.584 36.3525 15.9668 39.3066 11.8408C39.8682 11.0352 40.332 10.6934 40.9668 10.6934C41.6016 10.6934 42.2363 11.0596 42.2363 11.9873L42.2363 50.708C42.2363 52.1729 41.2598 52.9541 39.7217 52.9541C38.2812 52.9541 37.2559 52.124 37.3047 50.4883Z" fill="#bf5af2"/>
 </g>
</svg>
