<?xml version="1.0" encoding="UTF-8"?>
<!--Generator: Apple Native CoreSVG 326-->
<!DOCTYPE svg
PUBLIC "-//W3C//DTD SVG 1.1//EN"
       "http://www.w3.org/Graphics/SVG/1.1/DTD/svg11.dtd">
<svg version="1.1" xmlns="http://www.w3.org/2000/svg" xmlns:xlink="http://www.w3.org/1999/xlink" viewBox="0 0 63.9404 63.6475">
 <g>
  <rect height="63.6475" opacity="0" width="63.9404" x="0" y="0"/>
  <path d="M31.7871 63.5986C49.3164 63.5986 63.5986 49.3164 63.5986 31.8115C63.5986 14.2822 49.3164 0 31.7871 0C14.2822 0 0 14.2822 0 31.8115C0 49.3164 14.2822 63.5986 31.7871 63.5986Z" fill="#98989d" fill-opacity="0.25"/>
  <path d="M46.7529 36.2549C44.2627 36.2549 42.2607 34.2529 42.2607 31.7627C42.2607 29.2969 44.2627 27.2949 46.7529 27.2949C49.2188 27.2949 51.2451 29.2969 51.2451 31.7627C51.2451 34.2529 49.2188 36.2549 46.7529 36.2549Z" fill="#98989d"/>
  <path d="M31.7871 36.2549C29.3213 36.2549 27.3193 34.2529 27.3193 31.7627C27.3193 29.2969 29.3213 27.2949 31.7871 27.2949C34.2773 27.2949 36.2793 29.2969 36.2793 31.7627C36.2793 34.2529 34.2773 36.2549 31.7871 36.2549Z" fill="#98989d"/>
  <path d="M16.8213 36.2549C14.3799 36.2549 12.3535 34.2529 12.3535 31.7627C12.3535 29.2969 14.3799 27.2949 16.8213 27.2949C19.2871 27.2949 21.3135 29.2969 21.3135 31.7627C21.3135 34.2529 19.3115 36.2549 16.8213 36.2549Z" fill="#98989d"/>
 </g>
</svg>
