<?xml version="1.0" encoding="UTF-8"?>
<!--Generator: Apple Native CoreSVG 326-->
<!DOCTYPE svg
PUBLIC "-//W3C//DTD SVG 1.1//EN"
       "http://www.w3.org/Graphics/SVG/1.1/DTD/svg11.dtd">
<svg version="1.1" xmlns="http://www.w3.org/2000/svg" xmlns:xlink="http://www.w3.org/1999/xlink" viewBox="0 0 63.9404 63.6475">
 <g>
  <rect height="63.6475" opacity="0" width="63.9404" x="0" y="0"/>
  <path d="M31.7871 63.5986C49.3164 63.5986 63.5986 49.3164 63.5986 31.8115C63.5986 14.2822 49.3164 0 31.7871 0C14.2822 0 0 14.2822 0 31.8115C0 49.3164 14.2822 63.5986 31.7871 63.5986Z" fill="#32d74b" fill-opacity="0.25"/>
  <path d="M31.7871 49.585C31.25 49.585 30.8105 49.1455 30.8105 48.6084L30.8105 45.7031C26.8555 45.4346 22.8271 43.5791 21.7529 39.6484C21.6553 39.3311 21.6064 39.0137 21.6064 38.7207C21.6064 37.7686 22.29 37.207 23.1445 37.207C23.9258 37.207 24.3896 37.5732 24.7559 38.4766C25.6348 41.3086 27.832 42.6514 30.8105 42.8711L30.8105 32.7393L30.0293 32.5439C26.0742 31.5918 22.1191 29.8096 22.1191 25.1465C22.1191 20.6055 26.1719 17.8467 30.8105 17.4805L30.8105 14.6973C30.8105 14.1846 31.25 13.7451 31.7871 13.7451C32.3242 13.7451 32.7637 14.1846 32.7637 14.6973L32.7637 17.4805C37.1582 17.8467 41.5039 20.7275 41.5039 24.4141C41.5039 25.3906 40.6982 25.8789 39.9414 25.8789C39.1602 25.8789 38.5986 25.4395 38.3301 24.5605C37.5977 21.9971 35.5225 20.5811 32.7637 20.3613L32.7637 30.0049L33.7891 30.249C38.1836 31.2744 41.9922 33.1299 41.9922 37.8418C41.9922 42.9443 37.7197 45.4346 32.7637 45.7031L32.7637 48.6084C32.7637 49.1455 32.3242 49.585 31.7871 49.585ZM25.3418 24.9023C25.3418 27.6367 27.8564 28.833 30.542 29.4922L30.8105 29.5654L30.8105 20.3613C28.0518 20.6543 25.3418 22.0703 25.3418 24.9023ZM32.7637 42.8955C35.8887 42.6758 38.7695 41.4062 38.7695 38.0859C38.7695 35.083 36.1328 34.0088 33.2031 33.3008L32.7637 33.2031Z" fill="#32d74b"/>
 </g>
</svg>
