<?xml version="1.0" encoding="UTF-8"?>
<!--Generator: Apple Native CoreSVG 326-->
<!DOCTYPE svg
PUBLIC "-//W3C//DTD SVG 1.1//EN"
       "http://www.w3.org/Graphics/SVG/1.1/DTD/svg11.dtd">
<svg version="1.1" xmlns="http://www.w3.org/2000/svg" xmlns:xlink="http://www.w3.org/1999/xlink" viewBox="0 0 41.0781 40.7344">
 <g>
  <rect height="40.7344" opacity="0" width="41.0781" x="0" y="0"/>
  <path d="M20.3438 40.7031C31.5625 40.7031 40.7031 31.5625 40.7031 20.3594C40.7031 9.14062 31.5625 0 20.3438 0C9.14062 0 0 9.14062 0 20.3594C0 31.5625 9.14062 40.7031 20.3438 40.7031Z" fill="#007aff"/>
  <path d="M10.7188 20.375C10.7188 19.4688 11.3438 18.8594 12.25 18.8594L18.8594 18.8594L18.8594 12.2344C18.8594 11.3594 19.4688 10.7188 20.3281 10.7188C21.2188 10.7188 21.8281 11.3438 21.8281 12.2344L21.8281 18.8594L28.4688 18.8594C29.3438 18.8594 29.9688 19.4688 29.9688 20.375C29.9688 21.2344 29.3281 21.8281 28.4688 21.8281L21.8281 21.8281L21.8281 28.4688C21.8281 29.3438 21.2188 29.9688 20.3281 29.9688C19.4688 29.9688 18.8594 29.3281 18.8594 28.4688L18.8594 21.8281L12.25 21.8281C11.3594 21.8281 10.7188 21.2344 10.7188 20.375Z" fill="white" fill-opacity="0.85"/>
 </g>
</svg>
