<?xml version="1.0" encoding="UTF-8"?>
<!--Generator: Apple Native CoreSVG 326-->
<!DOCTYPE svg
PUBLIC "-//W3C//DTD SVG 1.1//EN"
       "http://www.w3.org/Graphics/SVG/1.1/DTD/svg11.dtd">
<svg version="1.1" xmlns="http://www.w3.org/2000/svg" xmlns:xlink="http://www.w3.org/1999/xlink" viewBox="0 0 63.9404 63.6475">
 <g>
  <rect height="63.6475" opacity="0" width="63.9404" x="0" y="0"/>
  <path d="M31.7871 63.6475C49.3164 63.6475 63.5986 49.3652 63.5986 31.8359C63.5986 14.3311 49.3164 0.0488281 31.7871 0.0488281C14.2822 0.0488281 0 14.3311 0 31.8359C0 49.3652 14.2822 63.6475 31.7871 63.6475Z" fill="#0a84ff" fill-opacity="0.25"/>
  <path d="M52.7832 31.8604C52.7832 33.96 50 35.5469 46.5576 35.5469L39.624 35.5469C38.7695 35.5469 38.501 35.6689 37.9639 36.2305L26.5869 48.6572C26.1963 49.0967 25.6592 49.3408 25.1221 49.3408L23.1445 49.3408C22.5342 49.3408 22.168 48.7549 22.4365 48.1201L28.1494 35.498L19.8975 34.5703L16.8945 40.0391C16.6016 40.5273 16.1865 40.7715 15.5518 40.7715L14.7949 40.7715C14.209 40.7715 13.8184 40.3809 13.8184 39.7949L13.8184 23.9014C13.8184 23.3154 14.209 22.9492 14.7949 22.9492L15.5518 22.9492C16.1865 22.9492 16.6016 23.1689 16.8945 23.6816L19.8975 29.126L28.1494 28.2227L22.4365 15.6006C22.168 14.9658 22.5342 14.3799 23.1445 14.3799L25.1221 14.3799C25.6592 14.3799 26.1963 14.624 26.5869 15.0635L37.9639 27.4658C38.501 28.0518 38.7695 28.1738 39.624 28.1738L46.5576 28.1738C50 28.1738 52.7832 29.7607 52.7832 31.8604Z" fill="#0a84ff"/>
 </g>
</svg>
