<?xml version="1.0" encoding="UTF-8"?>
<!--Generator: Apple Native CoreSVG 326-->
<!DOCTYPE svg
PUBLIC "-//W3C//DTD SVG 1.1//EN"
       "http://www.w3.org/Graphics/SVG/1.1/DTD/svg11.dtd">
<svg version="1.1" xmlns="http://www.w3.org/2000/svg" xmlns:xlink="http://www.w3.org/1999/xlink" viewBox="0 0 63.9404 63.6475">
 <g>
  <rect height="63.6475" opacity="0" width="63.9404" x="0" y="0"/>
  <path d="M31.7871 63.6475C49.3164 63.6475 63.5986 49.3652 63.5986 31.8359C63.5986 14.3311 49.3164 0.0488281 31.7871 0.0488281C14.2822 0.0488281 0 14.3311 0 31.8359C0 49.3652 14.2822 63.6475 31.7871 63.6475Z" fill="#ffd60a" fill-opacity="0.25"/>
  <path d="M22.0947 47.5586C18.6768 47.5586 16.9189 45.8496 16.9189 42.5293L16.9189 24.8291C16.9189 21.46 18.6768 19.7998 22.0947 19.7998L24.9756 19.7998C25.0488 16.3574 27.9297 13.3789 31.7871 13.3789C35.6445 13.3789 38.5498 16.3574 38.5986 19.7998L41.5039 19.7998C44.8975 19.7998 46.6553 21.4844 46.6553 24.8291L46.6553 42.5293C46.6553 45.8252 44.9219 47.5586 41.9189 47.5586ZM27.7588 19.7998L35.8154 19.7998C35.7666 17.4805 34.2285 16.0156 31.7871 16.0156C29.3457 16.0156 27.832 17.4805 27.7588 19.7998Z" fill="#ffd60a"/>
 </g>
</svg>
